<svg width="18" height="27" viewBox="0 0 18 27" fill="none" xmlns="http://www.w3.org/2000/svg">
<path d="M0.00012207 18.2001C0.00012207 23.0376 3.91262 26.9501 8.75012 26.9501C13.5876 26.9501 17.5001 23.0376 17.5001 18.2001V13.2001H0.00012207V18.2001ZM13.9001 3.66256L16.5251 1.03756L15.5001 6.10352e-05L12.6251 2.88756C11.4501 2.30006 10.1501 1.95006 8.75012 1.95006C7.35012 1.95006 6.05012 2.30006 4.88762 2.88756L2.00012 6.10352e-05L0.975122 1.03756L3.60012 3.66256C1.42512 5.25006 0.00012207 7.80006 0.00012207 10.7001V11.9501H17.5001V10.7001C17.5001 7.80006 16.0751 5.25006 13.9001 3.66256ZM5.00012 9.45006C4.31262 9.45006 3.75012 8.88756 3.75012 8.20006C3.75012 7.51256 4.31262 6.95006 5.00012 6.95006C5.68762 6.95006 6.25012 7.51256 6.25012 8.20006C6.25012 8.88756 5.68762 9.45006 5.00012 9.45006ZM12.5001 9.45006C11.8126 9.45006 11.2501 8.88756 11.2501 8.20006C11.2501 7.51256 11.8126 6.95006 12.5001 6.95006C13.1876 6.95006 13.7501 7.51256 13.7501 8.20006C13.7501 8.88756 13.1876 9.45006 12.5001 9.45006Z" fill="#5AB2F1"/>
</svg>
